<mxfile host="65bd71144e">
    <diagram id="rTGYkSX41fL7zGnlL-Gs" name="PÃ¡gina-1">
        <mxGraphModel dx="2183" dy="1744" grid="1" gridSize="10" guides="1" tooltips="1" connect="1" arrows="1" fold="1" page="1" pageScale="1" pageWidth="827" pageHeight="1169" math="0" shadow="0">
            <root>
                <mxCell id="0"/>
                <mxCell id="1" parent="0"/>
                <mxCell id="2" value="Quadrilateral" style="swimlane;fontStyle=3;align=center;verticalAlign=top;childLayout=stackLayout;horizontal=1;startSize=26;horizontalStack=0;resizeParent=1;resizeParentMax=0;resizeLast=0;collapsible=1;marginBottom=0;" vertex="1" parent="1">
                    <mxGeometry x="-890" y="-555" width="930" height="570" as="geometry">
                        <mxRectangle x="354" y="40" width="110" height="30" as="alternateBounds"/>
                    </mxGeometry>
                </mxCell>
                <mxCell id="3" value="# side1: double&#10;# side2: double&#10;# side3: double&#10;# side4: double&#10;# angle1: double&#10;# angle2: double&#10;# angle3: double&#10;# angle4: double&#10;# diagonal1: double&#10;# diagonal2: double" style="text;strokeColor=none;fillColor=none;align=left;verticalAlign=top;spacingLeft=4;spacingRight=4;overflow=hidden;rotatable=0;points=[[0,0.5],[1,0.5]];portConstraint=eastwest;" vertex="1" parent="2">
                    <mxGeometry y="26" width="930" height="164" as="geometry"/>
                </mxCell>
                <mxCell id="4" value="" style="line;strokeWidth=1;fillColor=none;align=left;verticalAlign=middle;spacingTop=-1;spacingLeft=3;spacingRight=3;rotatable=0;labelPosition=right;points=[];portConstraint=eastwest;strokeColor=inherit;" vertex="1" parent="2">
                    <mxGeometry y="190" width="930" height="8" as="geometry"/>
                </mxCell>
                <mxCell id="5" value="+ Quadrilateral(side1 double, side2 double, side3 double, side4 double, angle1 double, angle2 double, angle3 double, angle4 double, diagonal1 double, diagonal2 double)&lt;br&gt;+ calculatePerimeter(): double&lt;br&gt;&lt;i&gt;+ calculateArea(): double&lt;br&gt;+ &lt;/i&gt;setSide1(side double)&lt;br&gt;+ setSide2(side double)&lt;br&gt;+ setSide3(side double)&lt;br&gt;+ setSide4(side double)&lt;br&gt;+ setAngle1(angle double)&lt;br&gt;+ setAngle2(angle double)&lt;br&gt;+ setAngle3(angle double)&lt;br&gt;+ setAngle4(angle double)&lt;br&gt;+ setDiagonal1(diagonal double)&lt;br&gt;+ setDiagonal2(diagonal double)&lt;br&gt;&lt;div&gt;+ getSide1(): double&lt;/div&gt;&lt;div&gt;+ getSide2(): double&lt;/div&gt;&lt;div&gt;+ getSide3(): double&lt;/div&gt;&lt;div&gt;+ getSide4(): double&lt;/div&gt;&lt;div&gt;+ getAngle1(): double&lt;/div&gt;&lt;div&gt;+ getAngle2(): double&lt;/div&gt;&lt;div&gt;+ getAngle3(): double&lt;/div&gt;&lt;div&gt;+ getAngle4(): double&lt;/div&gt;&lt;div&gt;+ getDiagonal1(): double&lt;/div&gt;&lt;div&gt;+ getDiagonal2(): double}&lt;/div&gt;&lt;div&gt;+ scale(double scaleFactor)&lt;/div&gt;" style="text;strokeColor=none;fillColor=none;align=left;verticalAlign=top;spacingLeft=4;spacingRight=4;overflow=hidden;rotatable=0;points=[[0,0.5],[1,0.5]];portConstraint=eastwest;html=1;" vertex="1" parent="2">
                    <mxGeometry y="198" width="930" height="372" as="geometry"/>
                </mxCell>
                <mxCell id="6" value="Parallelogram" style="swimlane;fontStyle=1;align=center;verticalAlign=top;childLayout=stackLayout;horizontal=1;startSize=26;horizontalStack=0;resizeParent=1;resizeParentMax=0;resizeLast=0;collapsible=1;marginBottom=0;" vertex="1" parent="1">
                    <mxGeometry x="-690" y="100" width="610" height="90" as="geometry"/>
                </mxCell>
                <mxCell id="7" value="" style="line;strokeWidth=1;fillColor=none;align=left;verticalAlign=middle;spacingTop=-1;spacingLeft=3;spacingRight=3;rotatable=0;labelPosition=right;points=[];portConstraint=eastwest;strokeColor=inherit;" vertex="1" parent="6">
                    <mxGeometry y="26" width="610" height="8" as="geometry"/>
                </mxCell>
                <mxCell id="8" value="+ Parallelogram(side1 double, side2 double, angle1 double, angle2 double, diagonal1 double, diagonal2 double)&#10;+ calculateArea(): double" style="text;strokeColor=none;fillColor=none;align=left;verticalAlign=top;spacingLeft=4;spacingRight=4;overflow=hidden;rotatable=0;points=[[0,0.5],[1,0.5]];portConstraint=eastwest;" vertex="1" parent="6">
                    <mxGeometry y="34" width="610" height="56" as="geometry"/>
                </mxCell>
                <mxCell id="9" value="Irregular" style="swimlane;fontStyle=1;align=center;verticalAlign=top;childLayout=stackLayout;horizontal=1;startSize=26;horizontalStack=0;resizeParent=1;resizeParentMax=0;resizeLast=0;collapsible=1;marginBottom=0;" vertex="1" parent="1">
                    <mxGeometry x="-1600" y="239" width="890" height="80" as="geometry"/>
                </mxCell>
                <mxCell id="10" value="" style="line;strokeWidth=1;fillColor=none;align=left;verticalAlign=middle;spacingTop=-1;spacingLeft=3;spacingRight=3;rotatable=0;labelPosition=right;points=[];portConstraint=eastwest;strokeColor=inherit;" vertex="1" parent="9">
                    <mxGeometry y="26" width="890" height="8" as="geometry"/>
                </mxCell>
                <mxCell id="11" value="+ Irregular(side1 double, side2 double, side3 double, side4 double, angle1 double, angle2 double, angle 3 double, angle4 double, diagonal1 double diagonal2 double)&#10;+ calculateArea(): double" style="text;strokeColor=none;fillColor=none;align=left;verticalAlign=top;spacingLeft=4;spacingRight=4;overflow=hidden;rotatable=0;points=[[0,0.5],[1,0.5]];portConstraint=eastwest;" vertex="1" parent="9">
                    <mxGeometry y="34" width="890" height="46" as="geometry"/>
                </mxCell>
                <mxCell id="12" value="IsoscelesTrapezium" style="swimlane;fontStyle=1;align=center;verticalAlign=top;childLayout=stackLayout;horizontal=1;startSize=26;horizontalStack=0;resizeParent=1;resizeParentMax=0;resizeLast=0;collapsible=1;marginBottom=0;" vertex="1" parent="1">
                    <mxGeometry x="30" y="305" width="530" height="110" as="geometry"/>
                </mxCell>
                <mxCell id="13" value="" style="line;strokeWidth=1;fillColor=none;align=left;verticalAlign=middle;spacingTop=-1;spacingLeft=3;spacingRight=3;rotatable=0;labelPosition=right;points=[];portConstraint=eastwest;strokeColor=inherit;" vertex="1" parent="12">
                    <mxGeometry y="26" width="530" height="8" as="geometry"/>
                </mxCell>
                <mxCell id="14" value="+ IsoscelesTrapezium(side1 double, side2 double, side3 double, angle1, angle2, diagonal1)&#10;+ calculateArea(): double" style="text;strokeColor=none;fillColor=none;align=left;verticalAlign=top;spacingLeft=4;spacingRight=4;overflow=hidden;rotatable=0;points=[[0,0.5],[1,0.5]];portConstraint=eastwest;" vertex="1" parent="12">
                    <mxGeometry y="34" width="530" height="76" as="geometry"/>
                </mxCell>
                <mxCell id="15" value="Rectangle" style="swimlane;fontStyle=1;align=center;verticalAlign=top;childLayout=stackLayout;horizontal=1;startSize=26;horizontalStack=0;resizeParent=1;resizeParentMax=0;resizeLast=0;collapsible=1;marginBottom=0;" vertex="1" parent="1">
                    <mxGeometry x="-800" y="365" width="440" height="80" as="geometry"/>
                </mxCell>
                <mxCell id="16" value="" style="line;strokeWidth=1;fillColor=none;align=left;verticalAlign=middle;spacingTop=-1;spacingLeft=3;spacingRight=3;rotatable=0;labelPosition=right;points=[];portConstraint=eastwest;strokeColor=inherit;" vertex="1" parent="15">
                    <mxGeometry y="26" width="440" height="8" as="geometry"/>
                </mxCell>
                <mxCell id="17" value="+ Rectangle(side1 double, side2 double)&#10;+ calculateArea(): double" style="text;strokeColor=none;fillColor=none;align=left;verticalAlign=top;spacingLeft=4;spacingRight=4;overflow=hidden;rotatable=0;points=[[0,0.5],[1,0.5]];portConstraint=eastwest;" vertex="1" parent="15">
                    <mxGeometry y="34" width="440" height="46" as="geometry"/>
                </mxCell>
                <mxCell id="18" value="Rhombus" style="swimlane;fontStyle=1;align=center;verticalAlign=top;childLayout=stackLayout;horizontal=1;startSize=26;horizontalStack=0;resizeParent=1;resizeParentMax=0;resizeLast=0;collapsible=1;marginBottom=0;" vertex="1" parent="1">
                    <mxGeometry x="-400" y="485" width="510" height="80" as="geometry"/>
                </mxCell>
                <mxCell id="19" value="" style="line;strokeWidth=1;fillColor=none;align=left;verticalAlign=middle;spacingTop=-1;spacingLeft=3;spacingRight=3;rotatable=0;labelPosition=right;points=[];portConstraint=eastwest;strokeColor=inherit;" vertex="1" parent="18">
                    <mxGeometry y="26" width="510" height="8" as="geometry"/>
                </mxCell>
                <mxCell id="20" value="+ Rhombus(side1 double, angle1 double, angle2 double, diagonal1 double, diagonal2 double)&#10;+ calculateArea(): double" style="text;strokeColor=none;fillColor=none;align=left;verticalAlign=top;spacingLeft=4;spacingRight=4;overflow=hidden;rotatable=0;points=[[0,0.5],[1,0.5]];portConstraint=eastwest;" vertex="1" parent="18">
                    <mxGeometry y="34" width="510" height="46" as="geometry"/>
                </mxCell>
                <mxCell id="21" value="Square" style="swimlane;fontStyle=1;align=center;verticalAlign=top;childLayout=stackLayout;horizontal=1;startSize=26;horizontalStack=0;resizeParent=1;resizeParentMax=0;resizeLast=0;collapsible=1;marginBottom=0;" vertex="1" parent="1">
                    <mxGeometry x="-660" y="505" width="160" height="80" as="geometry"/>
                </mxCell>
                <mxCell id="22" value="" style="line;strokeWidth=1;fillColor=none;align=left;verticalAlign=middle;spacingTop=-1;spacingLeft=3;spacingRight=3;rotatable=0;labelPosition=right;points=[];portConstraint=eastwest;strokeColor=inherit;" vertex="1" parent="21">
                    <mxGeometry y="26" width="160" height="8" as="geometry"/>
                </mxCell>
                <mxCell id="23" value="+ Square(side1)&#10;+ calculateArea(): double" style="text;strokeColor=none;fillColor=none;align=left;verticalAlign=top;spacingLeft=4;spacingRight=4;overflow=hidden;rotatable=0;points=[[0,0.5],[1,0.5]];portConstraint=eastwest;" vertex="1" parent="21">
                    <mxGeometry y="34" width="160" height="46" as="geometry"/>
                </mxCell>
                <mxCell id="24" value="Extends" style="endArrow=block;endSize=16;endFill=0;html=1;exitX=0.5;exitY=0;exitDx=0;exitDy=0;entryX=0.502;entryY=0.995;entryDx=0;entryDy=0;entryPerimeter=0;" edge="1" parent="1" source="6" target="5">
                    <mxGeometry width="160" relative="1" as="geometry">
                        <mxPoint x="-1040" y="-25" as="sourcePoint"/>
                        <mxPoint x="-880" y="-25" as="targetPoint"/>
                    </mxGeometry>
                </mxCell>
                <mxCell id="25" value="Extends" style="endArrow=block;endSize=16;endFill=0;html=1;exitX=0.5;exitY=0;exitDx=0;exitDy=0;entryX=0.502;entryY=1.002;entryDx=0;entryDy=0;entryPerimeter=0;" edge="1" parent="1" source="32" target="5">
                    <mxGeometry width="160" relative="1" as="geometry">
                        <mxPoint x="-615" y="15" as="sourcePoint"/>
                        <mxPoint x="-614.1799999999998" y="-105.31000000000006" as="targetPoint"/>
                    </mxGeometry>
                </mxCell>
                <mxCell id="26" value="Extends" style="endArrow=block;endSize=16;endFill=0;html=1;exitX=0.5;exitY=0;exitDx=0;exitDy=0;entryX=0.5;entryY=1.003;entryDx=0;entryDy=0;entryPerimeter=0;" edge="1" parent="1" source="9" target="5">
                    <mxGeometry width="160" relative="1" as="geometry">
                        <mxPoint x="-1160" y="165" as="sourcePoint"/>
                        <mxPoint x="-620" y="-115" as="targetPoint"/>
                    </mxGeometry>
                </mxCell>
                <mxCell id="27" value="Extends" style="endArrow=block;endSize=16;endFill=0;html=1;exitX=0.5;exitY=0;exitDx=0;exitDy=0;entryX=0.503;entryY=0.998;entryDx=0;entryDy=0;entryPerimeter=0;" edge="1" parent="1" target="5">
                    <mxGeometry width="160" relative="1" as="geometry">
                        <mxPoint x="-1585" y="85" as="sourcePoint"/>
                        <mxPoint x="-620" y="-115" as="targetPoint"/>
                    </mxGeometry>
                </mxCell>
                <mxCell id="28" value="Extends" style="endArrow=block;endSize=16;endFill=0;html=1;exitX=0.5;exitY=0;exitDx=0;exitDy=0;entryX=0.504;entryY=0.998;entryDx=0;entryDy=0;entryPerimeter=0;" edge="1" parent="1" source="12" target="35">
                    <mxGeometry width="160" relative="1" as="geometry">
                        <mxPoint x="100" y="245" as="sourcePoint"/>
                        <mxPoint x="260" y="245" as="targetPoint"/>
                    </mxGeometry>
                </mxCell>
                <mxCell id="29" value="Extends" style="endArrow=block;endSize=16;endFill=0;html=1;exitX=0.5;exitY=0;exitDx=0;exitDy=0;entryX=0.496;entryY=1.002;entryDx=0;entryDy=0;entryPerimeter=0;" edge="1" parent="1" source="15" target="8">
                    <mxGeometry width="160" relative="1" as="geometry">
                        <mxPoint x="-480" y="335" as="sourcePoint"/>
                        <mxPoint x="-320" y="335" as="targetPoint"/>
                    </mxGeometry>
                </mxCell>
                <mxCell id="30" value="Extends" style="endArrow=block;endSize=16;endFill=0;html=1;exitX=0.5;exitY=0;exitDx=0;exitDy=0;entryX=0.5;entryY=0.998;entryDx=0;entryDy=0;entryPerimeter=0;" edge="1" parent="1" source="18" target="8">
                    <mxGeometry width="160" relative="1" as="geometry">
                        <mxPoint x="-250" y="325" as="sourcePoint"/>
                        <mxPoint x="-260" y="225" as="targetPoint"/>
                    </mxGeometry>
                </mxCell>
                <mxCell id="31" value="Extends" style="endArrow=block;endSize=16;endFill=0;html=1;exitX=0.5;exitY=0;exitDx=0;exitDy=0;entryX=0.502;entryY=0.999;entryDx=0;entryDy=0;entryPerimeter=0;" edge="1" parent="1" source="21" target="17">
                    <mxGeometry width="160" relative="1" as="geometry">
                        <mxPoint x="-460" y="565" as="sourcePoint"/>
                        <mxPoint x="-300" y="565" as="targetPoint"/>
                    </mxGeometry>
                </mxCell>
                <mxCell id="32" value="Trapezium" style="swimlane;fontStyle=1;align=center;verticalAlign=top;childLayout=stackLayout;horizontal=1;startSize=26;horizontalStack=0;resizeParent=1;resizeParentMax=0;resizeLast=0;collapsible=1;marginBottom=0;" vertex="1" parent="1">
                    <mxGeometry x="-44" y="90" width="550" height="100" as="geometry"/>
                </mxCell>
                <mxCell id="33" value="# height: double" style="text;strokeColor=none;fillColor=none;align=left;verticalAlign=top;spacingLeft=4;spacingRight=4;overflow=hidden;rotatable=0;points=[[0,0.5],[1,0.5]];portConstraint=eastwest;" vertex="1" parent="32">
                    <mxGeometry y="26" width="550" height="26" as="geometry"/>
                </mxCell>
                <mxCell id="34" value="" style="line;strokeWidth=1;fillColor=none;align=left;verticalAlign=middle;spacingTop=-1;spacingLeft=3;spacingRight=3;rotatable=0;labelPosition=right;points=[];portConstraint=eastwest;strokeColor=inherit;" vertex="1" parent="32">
                    <mxGeometry y="52" width="550" height="8" as="geometry"/>
                </mxCell>
                <mxCell id="35" value="+ Trapezium(side1 double, side2 double, side3 double, side4 double, angle1 double, angle2 double)&#10;+ calculateArea(): double" style="text;strokeColor=none;fillColor=none;align=left;verticalAlign=top;spacingLeft=4;spacingRight=4;overflow=hidden;rotatable=0;points=[[0,0.5],[1,0.5]];portConstraint=eastwest;" vertex="1" parent="32">
                    <mxGeometry y="60" width="550" height="40" as="geometry"/>
                </mxCell>
                <mxCell id="36" value="Triangle" style="swimlane;fontStyle=3;align=center;verticalAlign=top;childLayout=stackLayout;horizontal=1;startSize=26;horizontalStack=0;resizeParent=1;resizeParentMax=0;resizeLast=0;collapsible=1;marginBottom=0;" vertex="1" parent="1">
                    <mxGeometry x="1089" y="-490" width="600" height="410" as="geometry"/>
                </mxCell>
                <mxCell id="37" value="# side1: double&#10;# side2: double&#10;# side3: double&#10;# angle1: double&#10;# angle2: double&#10;# angle3: double&#10;" style="text;strokeColor=none;fillColor=none;align=left;verticalAlign=top;spacingLeft=4;spacingRight=4;overflow=hidden;rotatable=0;points=[[0,0.5],[1,0.5]];portConstraint=eastwest;" vertex="1" parent="36">
                    <mxGeometry y="26" width="600" height="94" as="geometry"/>
                </mxCell>
                <mxCell id="38" value="" style="line;strokeWidth=1;fillColor=none;align=left;verticalAlign=middle;spacingTop=-1;spacingLeft=3;spacingRight=3;rotatable=0;labelPosition=right;points=[];portConstraint=eastwest;strokeColor=inherit;" vertex="1" parent="36">
                    <mxGeometry y="120" width="600" height="8" as="geometry"/>
                </mxCell>
                <mxCell id="39" value="&lt;div&gt;+ Triangle(side1: double, side2: double, side3: double)&amp;nbsp; &amp;nbsp; &amp;nbsp; &amp;nbsp;&amp;nbsp;&lt;/div&gt;&lt;div&gt;+ getSide1(): double&amp;nbsp; &amp;nbsp; &amp;nbsp; &amp;nbsp; &amp;nbsp; &amp;nbsp; &amp;nbsp;&amp;nbsp;&lt;/div&gt;&lt;div&gt;+ setSide1(side1: double): void&amp;nbsp; &amp;nbsp;&lt;/div&gt;&lt;div&gt;+ getSide2(): double&amp;nbsp; &amp;nbsp; &amp;nbsp; &amp;nbsp; &amp;nbsp; &amp;nbsp; &amp;nbsp;&amp;nbsp;&lt;/div&gt;&lt;div&gt;+ setSide2(side2: double): void&amp;nbsp; &amp;nbsp;&lt;/div&gt;&lt;div&gt;+ getSide3(): double&amp;nbsp; &amp;nbsp; &amp;nbsp; &amp;nbsp; &amp;nbsp; &amp;nbsp; &amp;nbsp;&amp;nbsp;&lt;/div&gt;&lt;div&gt;+ setSide3(side3: double): void&amp;nbsp;&lt;/div&gt;&lt;div&gt;+ setAngle1(angle1: double):void&lt;/div&gt;&lt;div&gt;+ getAngle1(): double&lt;/div&gt;&lt;div&gt;&lt;div style=&quot;border-color: var(--border-color);&quot;&gt;+ setAngle2&lt;span style=&quot;background-color: initial;&quot;&gt;(angle2: double):void&lt;/span&gt;&lt;/div&gt;&lt;div style=&quot;border-color: var(--border-color);&quot;&gt;+ getAngle2&lt;span style=&quot;background-color: initial;&quot;&gt;(): double&lt;/span&gt;&lt;/div&gt;&lt;/div&gt;&lt;div style=&quot;border-color: var(--border-color);&quot;&gt;&lt;div style=&quot;border-color: var(--border-color);&quot;&gt;+ setAngle3&lt;span style=&quot;background-color: initial;&quot;&gt;(angle3: double):void&lt;/span&gt;&lt;/div&gt;&lt;div style=&quot;border-color: var(--border-color);&quot;&gt;+ getAngle3&lt;span style=&quot;background-color: initial;&quot;&gt;(): double&lt;/span&gt;&lt;/div&gt;&lt;/div&gt;&lt;div&gt;+ calculatePerimeter(): double&amp;nbsp; &amp;nbsp; &amp;nbsp; &amp;nbsp; &amp;nbsp;&amp;nbsp;&lt;/div&gt;&lt;div&gt;&lt;i&gt;+ calculateArea(): double&amp;nbsp; &amp;nbsp; &amp;nbsp; &amp;nbsp;&lt;/i&gt;&lt;/div&gt;&lt;div&gt;&lt;i&gt;+ scale(double scaleFactor)&amp;nbsp; &amp;nbsp;&lt;/i&gt;&amp;nbsp; &amp;nbsp; &amp;nbsp;&lt;/div&gt;" style="text;strokeColor=none;fillColor=none;align=left;verticalAlign=top;spacingLeft=4;spacingRight=4;overflow=hidden;rotatable=0;points=[[0,0.5],[1,0.5]];portConstraint=eastwest;fontStyle=0;horizontal=1;html=1;" vertex="1" parent="36">
                    <mxGeometry y="128" width="600" height="282" as="geometry"/>
                </mxCell>
                <mxCell id="40" style="edgeStyle=none;html=1;exitX=0.5;exitY=0;exitDx=0;exitDy=0;entryX=0.488;entryY=1.004;entryDx=0;entryDy=0;entryPerimeter=0;" edge="1" parent="1" source="42" target="39">
                    <mxGeometry relative="1" as="geometry">
                        <mxPoint x="1379" y="-180" as="targetPoint"/>
                    </mxGeometry>
                </mxCell>
                <mxCell id="41" value="Extends" style="edgeLabel;html=1;align=center;verticalAlign=middle;resizable=0;points=[];" vertex="1" connectable="0" parent="40">
                    <mxGeometry x="0.0912" y="-2" relative="1" as="geometry">
                        <mxPoint as="offset"/>
                    </mxGeometry>
                </mxCell>
                <mxCell id="42" value="Equilateral" style="swimlane;fontStyle=1;align=center;verticalAlign=top;childLayout=stackLayout;horizontal=1;startSize=26;horizontalStack=0;resizeParent=1;resizeParentMax=0;resizeLast=0;collapsible=1;marginBottom=0;" vertex="1" parent="1">
                    <mxGeometry x="690" y="-30" width="550" height="80" as="geometry"/>
                </mxCell>
                <mxCell id="43" value="" style="line;strokeWidth=1;fillColor=none;align=left;verticalAlign=middle;spacingTop=-1;spacingLeft=3;spacingRight=3;rotatable=0;labelPosition=right;points=[];portConstraint=eastwest;strokeColor=inherit;" vertex="1" parent="42">
                    <mxGeometry y="26" width="550" height="8" as="geometry"/>
                </mxCell>
                <mxCell id="44" value="+ Equilateral(side: double)&lt;br&gt;+ calculateArea(): double" style="text;strokeColor=none;fillColor=none;align=left;verticalAlign=top;spacingLeft=4;spacingRight=4;overflow=hidden;rotatable=0;points=[[0,0.5],[1,0.5]];portConstraint=eastwest;fontStyle=0;html=1;rounded=1;" vertex="1" parent="42">
                    <mxGeometry y="34" width="550" height="46" as="geometry"/>
                </mxCell>
                <mxCell id="45" style="edgeStyle=none;html=1;exitX=0.5;exitY=0;exitDx=0;exitDy=0;entryX=0.498;entryY=0.995;entryDx=0;entryDy=0;entryPerimeter=0;" edge="1" parent="1" source="52" target="39">
                    <mxGeometry relative="1" as="geometry">
                        <mxPoint x="1379" y="320" as="sourcePoint"/>
                    </mxGeometry>
                </mxCell>
                <mxCell id="46" value="Extends" style="edgeLabel;html=1;align=center;verticalAlign=middle;resizable=0;points=[];" vertex="1" connectable="0" parent="45">
                    <mxGeometry x="0.2296" y="2" relative="1" as="geometry">
                        <mxPoint as="offset"/>
                    </mxGeometry>
                </mxCell>
                <mxCell id="47" style="edgeStyle=none;html=1;exitX=0.5;exitY=0;exitDx=0;exitDy=0;entryX=0.498;entryY=0.996;entryDx=0;entryDy=0;entryPerimeter=0;" edge="1" parent="1" source="49" target="39">
                    <mxGeometry relative="1" as="geometry">
                        <mxPoint x="1389" y="-180" as="targetPoint"/>
                    </mxGeometry>
                </mxCell>
                <mxCell id="48" value="Extends" style="edgeLabel;html=1;align=center;verticalAlign=middle;resizable=0;points=[];" vertex="1" connectable="0" parent="47">
                    <mxGeometry x="0.3308" y="-1" relative="1" as="geometry">
                        <mxPoint x="24" y="9" as="offset"/>
                    </mxGeometry>
                </mxCell>
                <mxCell id="49" value="Scalene" style="swimlane;fontStyle=1;align=center;verticalAlign=top;childLayout=stackLayout;horizontal=1;startSize=26;horizontalStack=0;resizeParent=1;resizeParentMax=0;resizeLast=0;collapsible=1;marginBottom=0;" vertex="1" parent="1">
                    <mxGeometry x="1680" y="-30" width="540" height="90" as="geometry"/>
                </mxCell>
                <mxCell id="50" value="" style="line;strokeWidth=1;fillColor=none;align=left;verticalAlign=middle;spacingTop=-1;spacingLeft=3;spacingRight=3;rotatable=0;labelPosition=right;points=[];portConstraint=eastwest;strokeColor=inherit;" vertex="1" parent="49">
                    <mxGeometry y="26" width="540" height="8" as="geometry"/>
                </mxCell>
                <mxCell id="51" value="&lt;div&gt;+ Scalene(side1: double, side2: double, side3: double)&amp;nbsp;&amp;nbsp;&lt;/div&gt;&lt;div&gt;+ isScalene(): boolean&amp;nbsp;&amp;nbsp;&lt;/div&gt;&lt;div&gt;+ getArea(): double&lt;/div&gt;" style="text;strokeColor=none;fillColor=none;align=left;verticalAlign=top;spacingLeft=4;spacingRight=4;overflow=hidden;rotatable=0;points=[[0,0.5],[1,0.5]];portConstraint=eastwest;html=1;" vertex="1" parent="49">
                    <mxGeometry y="34" width="540" height="56" as="geometry"/>
                </mxCell>
                <mxCell id="52" value="Isosceles" style="swimlane;fontStyle=1;align=center;verticalAlign=top;childLayout=stackLayout;horizontal=1;startSize=26;horizontalStack=0;resizeParent=1;resizeParentMax=0;resizeLast=0;collapsible=1;marginBottom=0;" vertex="1" parent="1">
                    <mxGeometry x="1210" y="90" width="350" height="150" as="geometry"/>
                </mxCell>
                <mxCell id="53" value="- base: double" style="text;strokeColor=none;fillColor=none;align=left;verticalAlign=top;spacingLeft=4;spacingRight=4;overflow=hidden;rotatable=0;points=[[0,0.5],[1,0.5]];portConstraint=eastwest;" vertex="1" parent="52">
                    <mxGeometry y="26" width="350" height="26" as="geometry"/>
                </mxCell>
                <mxCell id="54" value="" style="line;strokeWidth=1;fillColor=none;align=left;verticalAlign=middle;spacingTop=-1;spacingLeft=3;spacingRight=3;rotatable=0;labelPosition=right;points=[];portConstraint=eastwest;strokeColor=inherit;" vertex="1" parent="52">
                    <mxGeometry y="52" width="350" height="8" as="geometry"/>
                </mxCell>
                <mxCell id="55" value="+ Isosceles(side1: double, side2: double, base: double)&amp;nbsp;&lt;br&gt;+ getBase(): double&amp;nbsp; &amp;nbsp; &amp;nbsp; &amp;nbsp; &amp;nbsp; &amp;nbsp; &amp;nbsp; &amp;nbsp;&amp;nbsp;&lt;br&gt;+ setBase(base: double): void&amp;nbsp; &amp;nbsp; &amp;nbsp;&amp;nbsp;&lt;br&gt;+ isIsosceles(): boolean" style="text;strokeColor=none;fillColor=none;align=left;verticalAlign=top;spacingLeft=4;spacingRight=4;overflow=hidden;rotatable=0;points=[[0,0.5],[1,0.5]];portConstraint=eastwest;html=1;" vertex="1" parent="52">
                    <mxGeometry y="60" width="350" height="90" as="geometry"/>
                </mxCell>
                <mxCell id="63" style="edgeStyle=none;html=1;entryX=0.5;entryY=0;entryDx=0;entryDy=0;exitX=0.482;exitY=1.073;exitDx=0;exitDy=0;exitPerimeter=0;" edge="1" parent="1" source="62" target="2">
                    <mxGeometry relative="1" as="geometry"/>
                </mxCell>
                <mxCell id="64" style="edgeStyle=none;html=1;entryX=0.5;entryY=0;entryDx=0;entryDy=0;exitX=0.474;exitY=1.073;exitDx=0;exitDy=0;exitPerimeter=0;" edge="1" parent="1" source="62" target="36">
                    <mxGeometry relative="1" as="geometry"/>
                </mxCell>
                <mxCell id="59" value="&lt;&lt;Interface&gt;&gt;&#10;IShape" style="swimlane;fontStyle=0;childLayout=stackLayout;horizontal=1;startSize=40;fillColor=none;horizontalStack=0;resizeParent=1;resizeParentMax=0;resizeLast=0;collapsible=1;marginBottom=0;" vertex="1" parent="1">
                    <mxGeometry x="490" y="-900" width="220" height="118" as="geometry"/>
                </mxCell>
                <mxCell id="60" value="+ calculateArea(): double" style="text;strokeColor=none;fillColor=none;align=left;verticalAlign=top;spacingLeft=4;spacingRight=4;overflow=hidden;rotatable=0;points=[[0,0.5],[1,0.5]];portConstraint=eastwest;" vertex="1" parent="59">
                    <mxGeometry y="40" width="220" height="26" as="geometry"/>
                </mxCell>
                <mxCell id="61" value="+ calculatePerimeter(): double" style="text;strokeColor=none;fillColor=none;align=left;verticalAlign=top;spacingLeft=4;spacingRight=4;overflow=hidden;rotatable=0;points=[[0,0.5],[1,0.5]];portConstraint=eastwest;" vertex="1" parent="59">
                    <mxGeometry y="66" width="220" height="26" as="geometry"/>
                </mxCell>
                <mxCell id="62" value="+ scale(double scaleFactor)" style="text;strokeColor=none;fillColor=none;align=left;verticalAlign=top;spacingLeft=4;spacingRight=4;overflow=hidden;rotatable=0;points=[[0,0.5],[1,0.5]];portConstraint=eastwest;" vertex="1" parent="59">
                    <mxGeometry y="92" width="220" height="26" as="geometry"/>
                </mxCell>
            </root>
        </mxGraphModel>
    </diagram>
</mxfile>